{
  "asset": {
    "version": "2.0",
    "generator": "THREE.GLTFExporter"
  },
  "scenes": [
    {
      "nodes": [
        21
      ],
      "name": "threeBoard"
    }
  ],
  "scene": 0,
  "nodes": [
    {
      "matrix": [
        0.9983137689459762,
        1.7347234759768069e-18,
        -0.0580484171436196,
        0,
        -0.0179148206305474,
        0.9511858735912704,
        -0.3080981874049032,
        0,
        0.0552148343713443,
        0.3086185896546278,
        0.9495819544330723,
        0,
        8186.63,
        45758.4,
        140793,
        1
      ],
      "name": "Sun"
    },
    {
      "matrix": [
        0.9938898848825481,
        2.1510571102112406e-16,
        0.11037616014409499,
        0,
        0.04644750250245741,
        0.9071483345829005,
        -0.41823979793266236,
        0,
        -0.10012754985237139,
        0.4208110015950986,
        0.9016055538299944,
        0,
        -381.249,
        1602.27,
        3432.93,
        1
      ],
      "name": "Moon"
    },
    {
      "matrix": [
        1,
        0,
        0,
        0,
        0,
        1,
        0,
        0,
        0,
        0,
        1,
        0,
        3037.51,
        3151.5,
        4583.96,
        1
      ],
      "name": "Sky_Null",
      "children": [
        0,
        1
      ]
    },
    {
      "matrix": [
        1,
        0,
        0,
        0,
        0,
        1,
        0,
        0,
        0,
        0,
        1,
        0,
        0,
        10000,
        0,
        1
      ],
      "name": "Shadow_Plane"
    },
    {
      "name": "Sky_Dome"
    },
    {
      "matrix": [
        0.48968218987153866,
        0.03284171490993145,
        0.871282258906027,
        0,
        -0.13882096707513455,
        0.9894798177124517,
        0.04072381907505396,
        0,
        -0.8607787706623222,
        -0.1408939746813472,
        0.48908976259532677,
        0,
        1064.31,
        79.4531,
        -56.1617,
        1
      ],
      "name": "Physical_Sky",
      "children": [
        2,
        3,
        4
      ]
    },
    {
      "matrix": [
        1,
        0,
        0,
        0,
        0,
        1,
        0,
        0,
        0,
        0,
        1,
        0,
        -831.405,
        891.559,
        -22.5456,
        1
      ],
      "name": "Sphere.5",
      "mesh": 0
    },
    {
      "matrix": [
        1,
        0,
        0,
        0,
        0,
        1,
        0,
        0,
        0,
        0,
        1,
        0,
        -740.543,
        858.409,
        -278.461,
        1
      ],
      "name": "Sphere.5",
      "mesh": 1
    },
    {
      "matrix": [
        1,
        0,
        0,
        0,
        0,
        1,
        0,
        0,
        0,
        0,
        1,
        0,
        -1067.26,
        841.821,
        4.89827,
        1
      ],
      "name": "Sphere.7",
      "mesh": 2
    },
    {
      "matrix": [
        1,
        0,
        0,
        0,
        0,
        1,
        0,
        0,
        0,
        0,
        1,
        0,
        -934.302,
        1009.92,
        -143.251,
        1
      ],
      "name": "Sphere.3",
      "mesh": 3
    },
    {
      "matrix": [
        0.9382444846202497,
        0,
        -0.34597295715081805,
        0,
        0,
        1,
        0,
        0,
        0.34597295715081805,
        0,
        0.9382444846202497,
        0,
        -68.7481,
        0,
        -110.733,
        1
      ],
      "name": "leaves2",
      "children": [
        6,
        7,
        8,
        9
      ]
    },
    {
      "matrix": [
        1,
        0,
        0,
        0,
        0,
        1,
        0,
        0,
        0,
        0,
        1,
        0,
        228.675,
        136.657,
        165.841,
        1
      ],
      "name": "Sphere.2",
      "mesh": 4
    },
    {
      "mesh": 5
    },
    {
      "matrix": [
        1,
        0,
        0,
        0,
        0,
        1,
        0,
        0,
        0,
        0,
        1,
        0,
        3.71171,
        972.595,
        -278.461,
        1
      ],
      "name": "Sphere.6",
      "children": [
        11,
        12
      ]
    },
    {
      "matrix": [
        1,
        0,
        0,
        0,
        0,
        1,
        0,
        0,
        0,
        0,
        1,
        0,
        378.154,
        972.595,
        -278.461,
        1
      ],
      "name": "Sphere.4",
      "mesh": 6
    },
    {
      "matrix": [
        1,
        0,
        0,
        0,
        0,
        1,
        0,
        0,
        0,
        0,
        1,
        0,
        232.387,
        1110.37,
        -210.356,
        1
      ],
      "name": "Sphere.2",
      "mesh": 7
    },
    {
      "matrix": [
        0.9382444846202497,
        0,
        -0.34597295715081805,
        0,
        0,
        1,
        0,
        0,
        0.34597295715081805,
        0,
        0.9382444846202497,
        0,
        -68.7481,
        0,
        -110.733,
        1
      ],
      "name": "leaves1",
      "children": [
        13,
        14,
        15
      ]
    },
    {
      "matrix": [
        1,
        0,
        0,
        0,
        0,
        1,
        0,
        0,
        0,
        0,
        1,
        0,
        -277.328,
        577.427,
        406.185,
        1
      ],
      "name": "Sphere.1",
      "mesh": 8
    },
    {
      "matrix": [
        1,
        0,
        0,
        0,
        0,
        1,
        0,
        0,
        0,
        0,
        1,
        0,
        31.0771,
        723.541,
        552.877,
        1
      ],
      "name": "Sphere",
      "mesh": 9
    },
    {
      "matrix": [
        0.9382444846202497,
        0,
        -0.34597295715081805,
        0,
        0,
        1,
        0,
        0,
        0.34597295715081805,
        0,
        0.9382444846202497,
        0,
        -68.7481,
        0,
        -110.733,
        1
      ],
      "name": "leaves0",
      "children": [
        17,
        18
      ]
    },
    {
      "matrix": [
        0.9382444846202497,
        0,
        -0.34597295715081805,
        0,
        0,
        1,
        0,
        0,
        0.34597295715081805,
        0,
        0.9382444846202497,
        0,
        -68.7481,
        0,
        -110.733,
        1
      ],
      "name": "Tree",
      "mesh": 10
    },
    {
      "matrix": [
        0.01,
        0,
        0,
        0,
        0,
        0.01,
        0,
        0,
        0,
        0,
        0.01,
        0,
        0,
        0,
        0,
        1
      ],
      "name": "lowpolyTree.dae",
      "children": [
        5,
        10,
        16,
        19,
        20
      ]
    }
  ],
  "bufferViews": [
    {
      "buffer": 0,
      "byteOffset": 0,
      "byteLength": 3744,
      "target": 34962,
      "byteStride": 12
    },
    {
      "buffer": 0,
      "byteOffset": 3744,
      "byteLength": 3744,
      "target": 34962,
      "byteStride": 12
    },
    {
      "buffer": 0,
      "byteOffset": 7488,
      "byteLength": 2496,
      "target": 34962,
      "byteStride": 8
    },
    {
      "buffer": 0,
      "byteOffset": 9984,
      "byteLength": 3744,
      "target": 34962,
      "byteStride": 12
    },
    {
      "buffer": 0,
      "byteOffset": 13728,
      "byteLength": 3744,
      "target": 34962,
      "byteStride": 12
    },
    {
      "buffer": 0,
      "byteOffset": 17472,
      "byteLength": 2496,
      "target": 34962,
      "byteStride": 8
    },
    {
      "buffer": 0,
      "byteOffset": 19968,
      "byteLength": 3744,
      "target": 34962,
      "byteStride": 12
    },
    {
      "buffer": 0,
      "byteOffset": 23712,
      "byteLength": 3744,
      "target": 34962,
      "byteStride": 12
    },
    {
      "buffer": 0,
      "byteOffset": 27456,
      "byteLength": 2496,
      "target": 34962,
      "byteStride": 8
    },
    {
      "buffer": 0,
      "byteOffset": 29952,
      "byteLength": 3744,
      "target": 34962,
      "byteStride": 12
    },
    {
      "buffer": 0,
      "byteOffset": 33696,
      "byteLength": 3744,
      "target": 34962,
      "byteStride": 12
    },
    {
      "buffer": 0,
      "byteOffset": 37440,
      "byteLength": 2496,
      "target": 34962,
      "byteStride": 8
    },
    {
      "buffer": 0,
      "byteOffset": 39936,
      "byteLength": 720,
      "target": 34962,
      "byteStride": 12
    },
    {
      "buffer": 0,
      "byteOffset": 40656,
      "byteLength": 720,
      "target": 34962,
      "byteStride": 12
    },
    {
      "buffer": 0,
      "byteOffset": 41376,
      "byteLength": 480,
      "target": 34962,
      "byteStride": 8
    },
    {
      "buffer": 0,
      "byteOffset": 41856,
      "byteLength": 3744,
      "target": 34962,
      "byteStride": 12
    },
    {
      "buffer": 0,
      "byteOffset": 45600,
      "byteLength": 3744,
      "target": 34962,
      "byteStride": 12
    },
    {
      "buffer": 0,
      "byteOffset": 49344,
      "byteLength": 2496,
      "target": 34962,
      "byteStride": 8
    },
    {
      "buffer": 0,
      "byteOffset": 51840,
      "byteLength": 3744,
      "target": 34962,
      "byteStride": 12
    },
    {
      "buffer": 0,
      "byteOffset": 55584,
      "byteLength": 3744,
      "target": 34962,
      "byteStride": 12
    },
    {
      "buffer": 0,
      "byteOffset": 59328,
      "byteLength": 2496,
      "target": 34962,
      "byteStride": 8
    },
    {
      "buffer": 0,
      "byteOffset": 61824,
      "byteLength": 3744,
      "target": 34962,
      "byteStride": 12
    },
    {
      "buffer": 0,
      "byteOffset": 65568,
      "byteLength": 3744,
      "target": 34962,
      "byteStride": 12
    },
    {
      "buffer": 0,
      "byteOffset": 69312,
      "byteLength": 2496,
      "target": 34962,
      "byteStride": 8
    },
    {
      "buffer": 0,
      "byteOffset": 71808,
      "byteLength": 3744,
      "target": 34962,
      "byteStride": 12
    },
    {
      "buffer": 0,
      "byteOffset": 75552,
      "byteLength": 3744,
      "target": 34962,
      "byteStride": 12
    },
    {
      "buffer": 0,
      "byteOffset": 79296,
      "byteLength": 2496,
      "target": 34962,
      "byteStride": 8
    },
    {
      "buffer": 0,
      "byteOffset": 81792,
      "byteLength": 3744,
      "target": 34962,
      "byteStride": 12
    },
    {
      "buffer": 0,
      "byteOffset": 85536,
      "byteLength": 3744,
      "target": 34962,
      "byteStride": 12
    },
    {
      "buffer": 0,
      "byteOffset": 89280,
      "byteLength": 2496,
      "target": 34962,
      "byteStride": 8
    },
    {
      "buffer": 0,
      "byteOffset": 91776,
      "byteLength": 8496,
      "target": 34962,
      "byteStride": 12
    },
    {
      "buffer": 0,
      "byteOffset": 100272,
      "byteLength": 8496,
      "target": 34962,
      "byteStride": 12
    },
    {
      "buffer": 0,
      "byteOffset": 108768,
      "byteLength": 5664,
      "target": 34962,
      "byteStride": 8
    }
  ],
  "buffers": [
    {
      "byteLength": 114432,
      "uri": "data:application/octet-stream;base64,"
    }
  ],
  "accessors": [
    {
      "bufferView": 0,
      "componentType": 5126,
      "count": 312,
      "max": [
        309.6789855957031,
        423.8059997558594,
        403.8380126953125
      ],
      "min": [
        -311.0929870605469,
        -403.76300048828125,
        -340.3280029296875
      ],
      "type": "VEC3"
    },
    {
      "bufferView": 1,
      "componentType": 5126,
      "count": 312,
      "max": [
        0.9905049800872803,
        0.983364999294281,
        0.9698160290718079
      ],
      "min": [
        -0.9937450289726257,
        -0.9409329891204834,
        -0.951196014881134
      ],
      "type": "VEC3"
    },
    {
      "bufferView": 2,
      "componentType": 5126,
      "count": 312,
      "max": [
        1,
        0.5
      ],
      "min": [
        0,
        0.08333340287208557
      ],
      "type": "VEC2"
    },
    {
      "bufferView": 3,
      "componentType": 5126,
      "count": 312,
      "max": [
        256.02398681640625,
        230.125,
        233.76800537109375
      ],
      "min": [
        -218.14999389648438,
        -228.875,
        -239.1540069580078
      ],
      "type": "VEC3"
    },
    {
      "bufferView": 4,
      "componentType": 5126,
      "count": 312,
      "max": [
        0.9806060194969177,
        0.984125018119812,
        0.9923030138015747
      ],
      "min": [
        -0.9940609931945801,
        -0.9666690230369568,
        -0.9743850231170654
      ],
      "type": "VEC3"
    },
    {
      "bufferView": 5,
      "componentType": 5126,
      "count": 312,
      "max": [
        1,
        0.5
      ],
      "min": [
        0,
        0.08333340287208557
      ],
      "type": "VEC2"
    },
    {
      "bufferView": 6,
      "componentType": 5126,
      "count": 312,
      "max": [
        256.02398681640625,
        230.125,
        233.76800537109375
      ],
      "min": [
        -218.14999389648438,
        -228.875,
        -239.1540069580078
      ],
      "type": "VEC3"
    },
    {
      "bufferView": 7,
      "componentType": 5126,
      "count": 312,
      "max": [
        0.9806060194969177,
        0.984125018119812,
        0.9923030138015747
      ],
      "min": [
        -0.9940609931945801,
        -0.9666690230369568,
        -0.9743850231170654
      ],
      "type": "VEC3"
    },
    {
      "bufferView": 8,
      "componentType": 5126,
      "count": 312,
      "max": [
        1,
        0.5
      ],
      "min": [
        0,
        0.08333340287208557
      ],
      "type": "VEC2"
    },
    {
      "bufferView": 9,
      "componentType": 5126,
      "count": 312,
      "max": [
        310.92999267578125,
        404.20098876953125,
        399.3110046386719
      ],
      "min": [
        -354.1960144042969,
        -368.27301025390625,
        -375.3479919433594
      ],
      "type": "VEC3"
    },
    {
      "bufferView": 10,
      "componentType": 5126,
      "count": 312,
      "max": [
        0.9936220049858093,
        0.9494439959526062,
        0.9344649910926819
      ],
      "min": [
        -0.9900709986686707,
        -0.9987729787826538,
        -0.9868469834327698
      ],
      "type": "VEC3"
    },
    {
      "bufferView": 11,
      "componentType": 5126,
      "count": 312,
      "max": [
        1,
        0.5
      ],
      "min": [
        0,
        0.08333340287208557
      ],
      "type": "VEC2"
    },
    {
      "bufferView": 12,
      "componentType": 5126,
      "count": 60,
      "max": [
        469.9909973144531,
        355.8810119628906,
        276.2850036621094
      ],
      "min": [
        -291.94000244140625,
        -370.9020080566406,
        -450.12799072265625
      ],
      "type": "VEC3"
    },
    {
      "bufferView": 13,
      "componentType": 5126,
      "count": 60,
      "max": [
        0.8641600012779236,
        0.9937570095062256,
        0.9801939725875854
      ],
      "min": [
        -0.999439001083374,
        -0.8801379799842834,
        -0.8574150204658508
      ],
      "type": "VEC3"
    },
    {
      "bufferView": 14,
      "componentType": 5126,
      "count": 60,
      "max": [
        0.8333330154418945,
        0.16666699945926666
      ],
      "min": [
        0,
        0.08333340287208557
      ],
      "type": "VEC2"
    },
    {
      "bufferView": 15,
      "componentType": 5126,
      "count": 312,
      "max": [
        256.02398681640625,
        230.125,
        233.76800537109375
      ],
      "min": [
        -218.14999389648438,
        -228.875,
        -239.1540069580078
      ],
      "type": "VEC3"
    },
    {
      "bufferView": 16,
      "componentType": 5126,
      "count": 312,
      "max": [
        0.9806060194969177,
        0.984125018119812,
        0.9923030138015747
      ],
      "min": [
        -0.9940609931945801,
        -0.9666690230369568,
        -0.9743850231170654
      ],
      "type": "VEC3"
    },
    {
      "bufferView": 17,
      "componentType": 5126,
      "count": 312,
      "max": [
        1,
        0.5
      ],
      "min": [
        0,
        0.08333340287208557
      ],
      "type": "VEC2"
    },
    {
      "bufferView": 18,
      "componentType": 5126,
      "count": 312,
      "max": [
        256.02398681640625,
        230.125,
        233.76800537109375
      ],
      "min": [
        -218.14999389648438,
        -228.875,
        -239.1540069580078
      ],
      "type": "VEC3"
    },
    {
      "bufferView": 19,
      "componentType": 5126,
      "count": 312,
      "max": [
        0.9806060194969177,
        0.984125018119812,
        0.9923030138015747
      ],
      "min": [
        -0.9940609931945801,
        -0.9666690230369568,
        -0.9743850231170654
      ],
      "type": "VEC3"
    },
    {
      "bufferView": 20,
      "componentType": 5126,
      "count": 312,
      "max": [
        1,
        0.5
      ],
      "min": [
        0,
        0.08333340287208557
      ],
      "type": "VEC2"
    },
    {
      "bufferView": 21,
      "componentType": 5126,
      "count": 312,
      "max": [
        373.6820068359375,
        362.3139953613281,
        348.28900146484375
      ],
      "min": [
        -375.7760009765625,
        -351.2640075683594,
        -462.4079895019531
      ],
      "type": "VEC3"
    },
    {
      "bufferView": 22,
      "componentType": 5126,
      "count": 312,
      "max": [
        0.9614369869232178,
        0.9994400143623352,
        0.988152027130127
      ],
      "min": [
        -0.9288229942321777,
        -0.9226890206336975,
        -0.9981889724731445
      ],
      "type": "VEC3"
    },
    {
      "bufferView": 23,
      "componentType": 5126,
      "count": 312,
      "max": [
        1,
        0.5
      ],
      "min": [
        0,
        0.08333340287208557
      ],
      "type": "VEC2"
    },
    {
      "bufferView": 24,
      "componentType": 5126,
      "count": 312,
      "max": [
        135.88699340820312,
        127.86900329589844,
        134.68099975585938
      ],
      "min": [
        -138.71099853515625,
        -164.3489990234375,
        -156.26199340820312
      ],
      "type": "VEC3"
    },
    {
      "bufferView": 25,
      "componentType": 5126,
      "count": 312,
      "max": [
        0.9981979727745056,
        0.9984520077705383,
        0.9619410037994385
      ],
      "min": [
        -0.9763320088386536,
        -0.9166859984397888,
        -0.9732699990272522
      ],
      "type": "VEC3"
    },
    {
      "bufferView": 26,
      "componentType": 5126,
      "count": 312,
      "max": [
        1,
        0.5
      ],
      "min": [
        0,
        0.08333340287208557
      ],
      "type": "VEC2"
    },
    {
      "bufferView": 27,
      "componentType": 5126,
      "count": 312,
      "max": [
        219.48300170898438,
        258.0159912109375,
        231.7790069580078
      ],
      "min": [
        -251.552001953125,
        -249.11900329589844,
        -301.7139892578125
      ],
      "type": "VEC3"
    },
    {
      "bufferView": 28,
      "componentType": 5126,
      "count": 312,
      "max": [
        0.9944900274276733,
        0.9779940247535706,
        0.9954490065574646
      ],
      "min": [
        -0.9705690145492554,
        -0.9509050250053406,
        -0.9751759767532349
      ],
      "type": "VEC3"
    },
    {
      "bufferView": 29,
      "componentType": 5126,
      "count": 312,
      "max": [
        1,
        0.5
      ],
      "min": [
        0,
        0.08333340287208557
      ],
      "type": "VEC2"
    },
    {
      "bufferView": 30,
      "componentType": 5126,
      "count": 708,
      "max": [
        262.9070129394531,
        1010.5999755859375,
        575.166015625
      ],
      "min": [
        -1054.6500244140625,
        -100,
        -351.2349853515625
      ],
      "type": "VEC3"
    },
    {
      "bufferView": 31,
      "componentType": 5126,
      "count": 708,
      "max": [
        0.9914910197257996,
        0.9939029812812805,
        0.9992610216140747
      ],
      "min": [
        -0.9999889731407166,
        -1,
        -0.9997119903564453
      ],
      "type": "VEC3"
    },
    {
      "bufferView": 32,
      "componentType": 5126,
      "count": 708,
      "max": [
        1,
        1
      ],
      "min": [
        0,
        0
      ],
      "type": "VEC2"
    }
  ],
  "materials": [
    {
      "pbrMetallicRoughness": {
        "baseColorFactor": [
          0.7047,
          0.275185,
          0.218457,
          1
        ],
        "metallicFactor": 0.5,
        "roughnessFactor": 0.5
      },
      "name": "Mat.1"
    },
    {
      "pbrMetallicRoughness": {
        "baseColorFactor": [
          0.785804,
          0.336432,
          0.27864,
          1
        ],
        "metallicFactor": 0.5,
        "roughnessFactor": 0.5
      },
      "name": "Mat.2"
    },
    {
      "pbrMetallicRoughness": {
        "baseColorFactor": [
          0.3696,
          0.21597,
          0.155232,
          1
        ],
        "metallicFactor": 0.5,
        "roughnessFactor": 0.5
      },
      "name": "Mat"
    }
  ],
  "meshes": [
    {
      "primitives": [
        {
          "mode": 4,
          "attributes": {
            "POSITION": 0,
            "NORMAL": 1,
            "TEXCOORD_0": 2
          },
          "material": 0
        }
      ]
    },
    {
      "primitives": [
        {
          "mode": 4,
          "attributes": {
            "POSITION": 3,
            "NORMAL": 4,
            "TEXCOORD_0": 5
          },
          "material": 0
        }
      ]
    },
    {
      "primitives": [
        {
          "mode": 4,
          "attributes": {
            "POSITION": 6,
            "NORMAL": 7,
            "TEXCOORD_0": 8
          },
          "material": 0
        }
      ]
    },
    {
      "primitives": [
        {
          "mode": 4,
          "attributes": {
            "POSITION": 9,
            "NORMAL": 10,
            "TEXCOORD_0": 11
          },
          "material": 0
        }
      ]
    },
    {
      "primitives": [
        {
          "mode": 4,
          "attributes": {
            "POSITION": 12,
            "NORMAL": 13,
            "TEXCOORD_0": 14
          },
          "material": 1
        }
      ]
    },
    {
      "primitives": [
        {
          "mode": 4,
          "attributes": {
            "POSITION": 15,
            "NORMAL": 16,
            "TEXCOORD_0": 17
          },
          "material": 0
        }
      ]
    },
    {
      "primitives": [
        {
          "mode": 4,
          "attributes": {
            "POSITION": 18,
            "NORMAL": 19,
            "TEXCOORD_0": 20
          },
          "material": 0
        }
      ]
    },
    {
      "primitives": [
        {
          "mode": 4,
          "attributes": {
            "POSITION": 21,
            "NORMAL": 22,
            "TEXCOORD_0": 23
          },
          "material": 1
        }
      ]
    },
    {
      "primitives": [
        {
          "mode": 4,
          "attributes": {
            "POSITION": 24,
            "NORMAL": 25,
            "TEXCOORD_0": 26
          },
          "material": 0
        }
      ]
    },
    {
      "primitives": [
        {
          "mode": 4,
          "attributes": {
            "POSITION": 27,
            "NORMAL": 28,
            "TEXCOORD_0": 29
          },
          "material": 1
        }
      ]
    },
    {
      "primitives": [
        {
          "mode": 4,
          "attributes": {
            "POSITION": 30,
            "NORMAL": 31,
            "TEXCOORD_0": 32
          },
          "material": 2
        }
      ]
    }
  ]
}